<?xml version="1.0" ?><!DOCTYPE svg  PUBLIC '-//W3C//DTD SVG 1.1//EN'  'http://www.w3.org/Graphics/SVG/1.1/DTD/svg11.dtd'><svg enable-background="new 0 0 48 48" height="48px" version="1.1" viewBox="0 0 48 48" width="48px" xml:space="preserve" xmlns="http://www.w3.org/2000/svg" xmlns:xlink="http://www.w3.org/1999/xlink"><g id="Layer_4"><g><path d="M28.256,39.289v-1.26h-8.512v1.26c0,1.393-1.129,2.521-2.522,2.521h-2.079v2.523h17.713v-2.523h-2.078    C29.385,41.811,28.256,40.682,28.256,39.289z" fill="#626262"/><rect fill="#000" height="20.176" width="37.83" x="5.04" y="8.652"/><path d="M45.396,3.667h-0.273H2.859H2.605H0.021V6.25v0.648v26.895v0.391v2.584h2.583h0.589h40.982h1.22h2.583    v-2.584v-0.883V6.846V6.25V3.667H45.396z M24,35.23c-0.696,0-1.261-0.564-1.261-1.262c0-0.695,0.565-1.26,1.261-1.26    c0.697,0,1.261,0.564,1.261,1.26C25.261,34.666,24.697,35.23,24,35.23z M45.435,6.846v0.919v23.644H2.565V7.765V6.898V6.009h0.293    h1.359h39.485h1.419h0.312V6.846z" fill="#626262"/></g></g></svg>
